<?xml version="1.0" encoding="UTF-8"?>
<svg id="Layer_2" data-name="Layer 2" xmlns="http://www.w3.org/2000/svg" viewBox="0 0 457.05 497.56">
    <defs>
        <style>
            .cls-1 {
            fill: white;
            }

            .cls-1, .cls-2 {
            stroke-width: 0px;
            }

            .cls-2 {
            fill: white; /* Change the fill color of cls-2 to white */
            }
        </style>
    </defs>
    <g id="Layer_1-2" data-name="Layer 1">
        <g>
            <path class="cls-1"
                d="M437.97,147.02c-7.88-19.21-17.87-37.23-30.88-53.46-29.64-36.97-67-62.36-112.78-75.34-43.87-12.44-87.57-11.82-130.15,4.01C84.76,51.73,36.71,108.54,22.73,192.37c-14.62,87.73,30.8,176.49,109.2,217.68,14.78,7.76,30.56,8.81,46.28,10.87,33.42,4.4,67.06,5.62,100.74,4.65,15.62-.45,31.2-1.99,46.36-6.74-3.32.29-6.63.72-9.96.86-62.69,2.62-123.86-6.92-184.17-23.16-3.68-.99-8.77-1.09-9.22-6.2-.4-4.63,4.27-5.92,7.4-7.87,32.32-20.13,66.76-34.86,104.84-39.54,29.48-3.62,58.44-.23,87.05,7.62,21.24,5.83,41.79,13.67,62.74,20.33,18.03,5.73,36.3,10.15,55.47,7.79,4.12-.51,8.17-1.55,12.26-2.34,1.63-.31,3.39-.94,4.68.57,1.38,1.62.23,3.16-.63,4.56-39.59,65.11-95.1,107.12-172.35,115.02-55.64,5.69-104.68-10.85-145.09-50.48-2.66-2.61-5.65-4.57-8.93-6.29C56.86,401.7,12.51,342.26,2.25,261.21-9.5,168.41,24.94,93.59,101.35,39.36,139.33,12.41,182.67-.53,229.24.02c62.64.74,116.64,23.39,161.02,67.87,22.19,22.24,38.43,48.43,49.31,77.92-.54.4-1.07.81-1.61,1.21Z" />
            <path class="cls-1"
                d="M132.11,155.72c18.38-15.95,37.2-31.29,57.88-44.25,8.19-5.13,16.26-10.44,24.75-15.06,1.73-.94,3.65-2.07,5.59-.54,1.91,1.51,1.34,3.65.9,5.58-7.94,35.21-23,66.33-51.84,89.4-15.33,12.27-32.81,20.93-50.4,29.38-9.46,4.55-18.85,9.19-27.47,15.29-6.64,4.69-12.21,10.27-16.32,17.3-.65,1.12-1.2,2.63-2.79,2.54-2.02-.12-1.99-2-2.32-3.38-13.01-54.77-3.3-103.8,38.36-143.64,19.94-19.08,44.31-30.11,72.46-30.49,11.11-.15,21.07-4.66,31.7-6.57,42.91-7.72,82.66-.25,118.5,24.75,80,55.8,89.14,169.58,16.03,235.57-4.06,3.67-8.66,6.76-13.05,10.06-.92.69-1.97,1.31-3.05,1.66-1.63.53-3.54.72-4.45-1.05-.93-1.81.93-2.65,2.05-3.48,8.2-6.05,15.9-12.64,22.59-20.37,31.2-36.09,42.02-77.49,32.32-124.21-11.02-53.11-57.63-102.38-122.97-108.47-20.41-1.9-40.32.14-59.46,7.36-10.43,3.93-18.16,12.25-26.76,19.01-15.99,12.57-30.78,26.5-44.57,41.46-6.69,6.35-12.14,13.61-16.26,21.92,5.99-6.82,13.8-11.86,18.57-19.75Z" />
            <path class="cls-2"
                d="M437.97,147.02c.53-.4,1.07-.81,1.61-1.21,3.98,5.77,4.85,12.69,6.84,19.15,4.05,13.16,6.48,26.68,6.67,40.54-3.25-19.96-7.7-39.6-15.11-58.47Z" />
        </g>
    </g>
</svg>