<?xml version="1.0" encoding="UTF-8"?>
<svg id="Layer_2" data-name="Layer 2" xmlns="http://www.w3.org/2000/svg" viewBox="0 0 1054 1054">
  <defs>
    <style>
      .cls-1 {
        fill: #05512c;
      }

      .cls-1, .cls-2 {
        stroke-width: 0px;
      }

      .cls-2 {
        fill: #112f24;
      }
    </style>
  </defs>
  <g id="Layer_2-2" data-name="Layer 2">
    <g id="Layer_1-2" data-name="Layer 1-2">
      <g>
        <path class="cls-1" d="M1010.02,311.43c-18.17-40.69-41.21-78.87-71.21-113.25-68.35-78.32-154.51-132.1-260.09-159.6-101.17-26.35-201.95-25.04-300.14,8.49C195.47,109.58,84.66,229.92,52.42,407.5c-33.72,185.84,71.03,373.87,251.83,461.12,34.08,16.44,70.48,18.66,106.73,23.03,77.07,9.32,154.65,11.91,232.32,9.85,36.02-.95,71.95-4.22,106.91-14.28-7.66.61-15.29,1.53-22.97,1.82-144.57,5.55-285.64-14.66-424.72-49.06-8.49-2.1-20.22-2.31-21.26-13.13-.92-9.81,9.85-12.54,17.07-16.67,74.53-42.64,153.96-73.85,241.78-83.76,67.98-7.67,134.77-.49,200.75,16.14,48.98,12.35,96.37,28.96,144.69,43.07,41.58,12.14,83.71,21.5,127.92,16.5,9.5-1.08,18.84-3.28,28.27-4.96,3.76-.66,7.82-1.99,10.79,1.21,3.18,3.43.53,6.69-1.45,9.66-91.3,137.93-219.31,226.92-397.46,243.65-128.31,12.05-241.41-22.98-334.6-106.93-6.13-5.53-13.03-9.68-20.59-13.32C131.13,850.93,28.85,725.02,5.19,553.33-21.91,356.74,57.52,198.25,233.73,83.37,321.32,26.28,421.26-1.13,528.66.04c144.46,1.57,268.99,49.55,371.33,143.77,51.17,47.11,88.62,102.59,113.72,165.06-1.25.85-2.47,1.72-3.71,2.56h.02Z"/>
        <path class="cls-1" d="M304.66,329.86c42.39-33.79,85.79-66.28,133.48-93.74,18.89-10.87,37.5-22.12,57.08-31.9,3.99-1.99,8.42-4.38,12.89-1.14,4.4,3.2,3.09,7.73,2.08,11.82-18.31,74.59-53.04,140.51-119.55,189.38-35.35,25.99-75.66,44.34-116.23,62.24-21.82,9.64-43.47,19.47-63.35,32.39-15.31,9.94-28.16,21.76-37.64,36.65-1.5,2.37-2.77,5.57-6.43,5.38-4.66-.25-4.59-4.24-5.35-7.16-30-116.02-7.61-219.88,88.46-304.28,45.98-40.42,102.18-63.78,167.1-64.59,25.62-.32,48.59-9.87,73.1-13.92,98.96-16.35,190.63-.53,273.28,52.43,184.49,118.2,205.57,359.23,36.97,499.02-9.36,7.77-19.97,14.32-30.1,21.31-2.12,1.46-4.54,2.78-7.03,3.52-3.76,1.12-8.16,1.53-10.26-2.22-2.14-3.83,2.14-5.61,4.73-7.37,18.91-12.82,36.67-26.78,52.1-43.15,71.95-76.45,96.9-164.15,74.53-263.12-25.41-112.51-132.9-216.88-283.59-229.78-47.07-4.02-92.98.3-137.12,15.59-24.05,8.33-41.88,25.95-61.71,40.27-36.88,26.63-70.98,56.14-102.78,87.83-15.43,13.45-28,28.83-37.5,46.43,13.81-14.45,31.82-25.12,42.82-41.84l.02-.04Z"/>
        <path class="cls-2" d="M1010.02,311.43c1.22-.85,2.47-1.72,3.71-2.56,9.18,12.22,11.18,26.88,15.77,40.57,9.34,27.88,14.94,56.52,15.38,85.88-7.49-42.28-17.76-83.89-34.85-123.86l-.02-.02Z"/>
      </g>
    </g>
  </g>
</svg>